# xmcd
#
# Track frame offsets: 
#        150
#        3431
#        28534
#        51474
#        71198
#        94468
#        107707
#        122125
#        142394
#        164282
#        194304
#        216379
#        239130
#        256341
#
# Disc length: 3755 seconds
#
# Revision: 0
# Processed by: cddbd v1.5.2PL0 Copyright (c) Steve Scherf et al.
# Submitted via: ExactAudioCopyFreeDBPlugin 1.0
#
DISCID=e00ea90e
DTITLE=Anna Weister Andersson and One In Christ - A Message of Love
DYEAR=2011
DGENRE=Gospel
TTITLE0=Introduction
TTITLE1=Jesus is right here now
TTITLE2=What a friend
TTITLE3=Higher purpose
TTITLE4=The Love of Jesus
TTITLE5=Fill us with your love
TTITLE6=Don't let go
TTITLE7=The people of god
TTITLE8=Be a message of love
TTITLE9=Be still and behold
TTITLE10=You're always on time
TTITLE11=Through it all
TTITLE12=Let your will be my peace
TTITLE13=To you
EXTD=
EXTT0=
EXTT1=
EXTT2=
EXTT3=
EXTT4=
EXTT5=
EXTT6=
EXTT7=
EXTT8=
EXTT9=
EXTT10=
EXTT11=
EXTT12=
EXTT13=
PLAYORDER=
